<?xml version="1.0" standalone="no"?>
<!DOCTYPE svg PUBLIC "-//W3C//DTD SVG 20010904//EN"
 "http://www.w3.org/TR/2001/REC-SVG-20010904/DTD/svg10.dtd">
<svg version="1.0" xmlns="http://www.w3.org/2000/svg"
 width="225.000000pt" height="225.000000pt" viewBox="0 0 225.000000 225.000000"
 preserveAspectRatio="xMidYMid meet">

<g transform="translate(0.000000,225.000000) scale(0.100000,-0.100000)"
fill="#000000" stroke="none">
<path d="M1005 1855 c-21 -20 -25 -32 -20 -53 10 -40 24 -52 61 -52 75 0 85
107 12 125 -21 5 -33 1 -53 -20z m64 -9 c7 -8 11 -27 9 -43 -2 -21 -9 -29 -27
-31 -13 -2 -28 2 -32 10 -29 45 17 104 50 64z"/>
<path d="M1163 1821 c-5 -34 -7 -63 -5 -66 3 -3 22 -5 43 -5 28 0 42 6 53 22
33 47 13 93 -45 103 l-36 7 -10 -61z m67 29 c15 0 22 -38 10 -60 -6 -12 -21
-20 -37 -20 -23 0 -25 3 -19 31 3 17 6 38 6 46 0 10 6 13 16 9 9 -3 19 -6 24
-6z"/>
<path d="M837 1822 c-24 -26 -21 -65 6 -90 28 -27 54 -28 86 -3 17 13 22 23
16 40 -7 24 -45 26 -53 3 -2 -8 2 -10 13 -6 13 5 16 2 13 -12 -5 -30 -49 -25
-67 8 -21 36 0 62 42 54 20 -4 27 -2 25 7 -7 20 -62 20 -81 -1z"/>
<path d="M1526 1710 c-44 -58 -40 -83 5 -30 30 37 38 32 14 -10 -29 -51 -10
-68 32 -28 30 28 39 18 13 -15 -11 -14 -16 -28 -11 -31 5 -4 26 17 47 45 30
41 34 53 23 60 -20 13 -23 12 -49 -16 -30 -32 -44 -22 -24 17 13 26 14 33 2
44 -12 12 -20 7 -52 -36z"/>
<path d="M522 1627 c-12 -13 -22 -28 -22 -33 0 -18 78 -87 90 -79 8 5 5 14
-10 30 -18 19 -19 23 -6 28 9 4 16 14 16 23 0 16 -2 15 -20 -1 -16 -14 -23
-16 -32 -7 -9 9 -7 16 5 30 34 37 13 45 -21 9z"/>
<path d="M1662 1600 c-23 -27 -39 -51 -34 -54 13 -8 98 82 87 93 -6 6 -26 -10
-53 -39z"/>
<path d="M1741 1570 c-10 -6 -12 -20 -7 -54 7 -47 -1 -58 -23 -32 -6 7 -9 21
-5 30 4 11 1 16 -10 16 -22 0 -21 -43 2 -63 43 -39 83 -8 62 48 -12 32 -8 40
15 31 9 -3 15 -13 13 -22 -2 -9 3 -19 10 -21 19 -7 15 32 -5 49 -28 24 -38 27
-52 18z"/>
<path d="M420 1500 c-25 -25 -25 -41 0 -72 28 -37 67 -41 97 -12 28 28 29 44
2 78 -25 32 -70 35 -99 6z m80 -20 c16 -16 18 -25 10 -40 -19 -36 -80 -14 -80
29 0 37 38 43 70 11z"/>
<path d="M1207 1464 c29 -33 55 -72 58 -87 4 -15 17 -34 28 -42 14 -10 21 -26
21 -50 1 -30 4 -35 23 -32 12 2 25 6 29 10 4 3 -3 4 -16 2 -22 -4 -22 -2 -18
68 2 51 12 89 30 130 15 31 23 57 18 57 -8 0 -70 -151 -70 -171 0 -22 -17 -5
-33 34 -9 24 -41 65 -69 93 l-52 49 51 -61z"/>
<path d="M1817 1426 c-3 -8 -3 -23 0 -35 3 -11 2 -28 -1 -37 -10 -26 -39 3
-32 32 7 26 -9 42 -18 18 -12 -31 -6 -54 19 -70 34 -22 55 -4 55 48 0 27 4 38
13 35 6 -2 12 -13 12 -25 1 -28 13 -39 21 -18 11 28 -12 66 -40 66 -13 0 -26
-6 -29 -14z"/>
<path d="M1446 1414 c-5 -14 -4 -15 9 -4 17 14 19 20 6 20 -5 0 -12 -7 -15
-16z"/>
<path d="M1435 1369 c-11 -17 1 -21 15 -4 8 9 8 15 2 15 -6 0 -14 -5 -17 -11z"/>
<path d="M998 1333 c7 -3 16 -2 19 1 4 3 -2 6 -13 5 -11 0 -14 -3 -6 -6z"/>
<path d="M1863 1293 c-29 -9 -53 -21 -53 -29 0 -9 8 -10 33 -3 52 15 87 31 87
40 0 11 -3 11 -67 -8z"/>
<path d="M1855 1205 c-31 -30 -32 -69 -3 -89 49 -34 108 -7 108 49 0 61 -61
85 -105 40z m80 -40 c0 -27 -3 -30 -36 -33 -41 -3 -56 16 -38 49 8 15 19 19
42 17 28 -3 32 -7 32 -33z"/>
<path d="M999 1205 c-33 -18 -41 -38 -33 -82 6 -32 9 -34 43 -31 28 2 35 7 33
21 -4 24 15 47 39 47 24 0 24 -11 0 -52 -33 -57 -31 -100 6 -134 23 -21 33
-24 65 -19 28 5 38 3 38 -7 -1 -23 -36 -92 -58 -111 -41 -37 -85 8 -47 47 14
14 13 17 -9 31 -74 49 -148 -50 -88 -117 20 -23 77 -33 109 -19 l25 11 -21
-26 c-26 -34 -26 -54 0 -88 16 -20 29 -26 60 -26 62 0 120 61 163 169 35 89
34 89 71 16 11 -22 25 -40 30 -39 6 0 23 24 38 52 32 59 50 68 37 20 -17 -67
-21 -136 -10 -177 9 -34 18 -45 46 -57 30 -13 38 -13 64 1 54 28 52 105 -4
135 -22 12 -30 12 -33 3 -3 -7 -11 -13 -19 -13 -40 0 -39 126 1 203 14 27 25
51 25 54 0 14 -45 -36 -87 -97 -26 -36 -48 -67 -50 -69 -6 -8 -23 14 -27 35
-3 10 -12 34 -21 52 -13 25 -14 37 -6 45 18 18 13 27 -17 27 -39 0 -53 -16
-40 -45 6 -13 8 -42 4 -67 -7 -48 -52 -136 -77 -151 -24 -15 -49 -1 -49 27 0
19 -7 27 -25 32 l-24 6 24 49 c23 44 27 48 44 37 15 -9 24 -8 45 5 28 19 35
47 11 47 -22 0 -18 38 5 45 26 8 26 22 -1 30 -30 10 -67 -2 -79 -25 -13 -24
-62 -27 -80 -5 -13 16 -7 68 12 111 10 21 18 24 69 24 46 0 63 5 85 23 21 18
25 28 19 46 -6 21 -12 23 -59 19 -33 -3 -65 -13 -85 -27 l-32 -23 -23 21 c-29
28 -75 35 -107 16z m251 -29 c0 -15 -21 -26 -51 -26 -22 0 -24 11 -7 28 17 17
58 15 58 -2z"/>
<path d="M290 1140 c0 -5 12 -10 26 -10 22 0 25 -4 22 -27 -2 -22 -8 -28 -25
-26 -15 2 -23 -3 -23 -12 0 -10 10 -15 29 -15 16 0 43 -3 60 -6 24 -5 31 -3
31 10 0 10 -9 16 -25 16 -20 0 -25 5 -25 25 0 21 5 25 30 25 35 0 40 15 8 24
-37 9 -108 7 -108 -4z"/>
<path d="M1850 1041 c0 -5 17 -11 38 -13 l37 -3 -42 -25 c-63 -37 -56 -50 24
-50 69 0 79 16 13 22 l-35 3 43 23 c24 13 42 28 39 35 -4 15 -117 22 -117 8z"/>
<path d="M302 978 c-13 -13 -16 -47 -4 -64 17 -26 53 -36 83 -24 44 19 53 81
14 96 -25 10 -31 -5 -9 -21 26 -19 7 -49 -35 -53 -36 -4 -51 19 -33 49 13 21
1 34 -16 17z"/>
<path d="M412 835 c-17 -22 -25 -25 -36 -16 -7 6 -21 8 -31 5 -14 -6 -16 -16
-12 -51 2 -24 7 -47 10 -50 9 -8 117 28 117 40 0 5 -11 7 -25 5 -30 -6 -33 11
-9 47 24 36 12 53 -14 20z m-32 -50 c9 -11 10 -19 2 -27 -14 -14 -32 -1 -32
23 0 23 13 25 30 4z"/>
<path d="M1764 709 c-7 -13 -8 -12 43 -38 43 -21 73 -27 72 -13 -1 14 -108 62
-115 51z"/>
<path d="M433 677 c-24 -11 -43 -27 -43 -34 0 -18 10 -16 45 7 39 26 65 26 65
0 0 -12 -15 -29 -41 -46 -43 -27 -46 -41 -7 -31 39 10 80 55 72 80 -6 21 -31
48 -43 46 -3 0 -25 -10 -48 -22z"/>
<path d="M1730 642 c0 -5 11 -15 25 -22 38 -21 30 -32 -22 -28 -25 2 -48 -1
-50 -7 -4 -12 95 -81 104 -72 3 4 4 8 2 10 -2 2 -17 13 -33 25 l-29 22 52 0
c63 0 66 14 10 53 -40 27 -59 34 -59 19z"/>
<path d="M522 547 c-23 -24 -39 -46 -36 -50 4 -4 16 0 26 10 17 15 19 15 33
-3 18 -24 18 -29 0 -44 -8 -7 -12 -16 -9 -21 3 -5 28 10 55 33 33 28 46 45 39
52 -6 6 -16 3 -30 -9 -19 -17 -22 -18 -37 -2 -16 15 -15 18 0 35 18 19 23 42
9 42 -4 0 -27 -19 -50 -43z"/>
<path d="M1627 523 c-4 -4 9 -24 29 -44 32 -33 35 -40 24 -54 -7 -8 -10 -18
-7 -21 8 -8 78 57 71 67 -3 6 -12 5 -20 -2 -12 -10 -22 -5 -53 25 -20 20 -40
33 -44 29z"/>
<path d="M655 460 c-6 -11 -3 -12 30 -14 30 -1 33 -49 4 -69 -25 -18 -45 -13
-52 14 -6 22 -27 26 -27 4 0 -21 36 -55 58 -55 51 0 85 64 57 106 -16 25 -58
33 -70 14z"/>
<path d="M1500 430 c-29 -22 -22 -37 10 -18 19 12 24 10 38 -10 43 -58 51 -67
57 -61 9 9 -54 109 -68 109 -7 0 -23 -9 -37 -20z"/>
<path d="M1630 369 c7 -11 14 -18 17 -15 8 8 -5 36 -17 36 -7 0 -7 -6 0 -21z"/>
</g>
</svg>
